STARTFONT 2.1
FONT -Adobe-Times-Bold-R-Normal--14-140-75-75-P-77-windows-1251
SIZE 14 75 75
FONTBOUNDINGBOX 16 18 -1 -4
COMMENT $XConsortium: timB14.bdf,v 1.14 95/01/26 18:05:52 gildea Exp $
COMMENT 
COMMENT +
COMMENT  Copyright 1984-1989, 1994 Adobe Systems Incorporated.
COMMENT  Copyright 1988, 1994 Digital Equipment Corporation.
COMMENT
COMMENT  Adobe is a trademark of Adobe Systems Incorporated which may be
COMMENT  registered in certain jurisdictions.
COMMENT  Permission to use these trademarks is hereby granted only in
COMMENT  association with the images described in this file.
COMMENT
COMMENT  Permission to use, copy, modify, distribute and sell this software
COMMENT  and its documentation for any purpose and without fee is hereby
COMMENT  granted, provided that the above copyright notices appear in all
COMMENT  copies and that both those copyright notices and this permission
COMMENT  notice appear in supporting documentation, and that the names of
COMMENT  Adobe Systems and Digital Equipment Corporation not be used in
COMMENT  advertising or publicity pertaining to distribution of the software
COMMENT  without specific, written prior permission.  Adobe Systems and
COMMENT  Digital Equipment Corporation make no representations about the
COMMENT  suitability of this software for any purpose.  It is provided "as
COMMENT  is" without express or implied warranty.
COMMENT -
STARTPROPERTIES 32
FOUNDRY "Adobe"
FAMILY_NAME "Times"
WEIGHT_NAME "Bold"
SLANT "R"
SETWIDTH_NAME "Normal"
ADD_STYLE_NAME ""
PIXEL_SIZE 14
POINT_SIZE 140
RESOLUTION_X 75
RESOLUTION_Y 75
SPACING "P"
AVERAGE_WIDTH 77
CHARSET_REGISTRY "windows"
CHARSET_ENCODING "1251"
CAP_HEIGHT 10
X_HEIGHT 7
FONT_ASCENT 12
FONT_DESCENT 3
FACE_NAME "Times Bold"
COPYRIGHT "Copyright (c) 1984, 1987 Adobe Systems Incorporated. All Rights Reserved. Copyright (c) 1988, 1991 Digital Equipment Corporation. All Rights Reserved."
NOTICE "Times is a trademark of Linotype-Hell AG and/or its subsidiaries."

STARTCHAR space
ENCODING 32
SWIDTH 274 0
DWIDTH 4 0
BBX 0 0 0 0
BITMAP
ENDCHAR
STARTCHAR exclam
ENCODING 33
SWIDTH 274 0
DWIDTH 4 0
BBX 2 10 1 0
BITMAP
C0
C0
C0
C0
C0
C0
C0
00
C0
C0
ENDCHAR
STARTCHAR quotedbl
ENCODING 34
SWIDTH 480 0
DWIDTH 7 0
BBX 5 4 1 6
BITMAP
D8
D8
D8
48
ENDCHAR
STARTCHAR numbersign
ENCODING 35
SWIDTH 480 0
DWIDTH 7 0
BBX 7 10 0 0
BITMAP
14
14
14
7E
28
28
FC
50
50
50
ENDCHAR
STARTCHAR dollar
ENCODING 36
SWIDTH 480 0
DWIDTH 7 0
BBX 6 12 0 -1
BITMAP
10
78
D4
D4
F0
78
3C
1C
94
D4
78
10
ENDCHAR
STARTCHAR percent
ENCODING 37
SWIDTH 960 0
DWIDTH 14 0
BBX 13 10 0 0
BITMAP
38C0
67C0
C580
C900
7300
0670
04C8
0D88
1990
18E0
ENDCHAR
STARTCHAR ampersand
ENCODING 38
SWIDTH 822 0
DWIDTH 12 0
BBX 9 10 1 0
BITMAP
3C00
6600
6600
3C00
3B80
7900
DD00
CE00
EF80
7B00
ENDCHAR
STARTCHAR quotesingle
ENCODING 39
SWIDTH 274 0
DWIDTH 4 0
BBX 2 4 1 6
BITMAP
C0
C0
C0
40
ENDCHAR
STARTCHAR parenleft
ENCODING 40
SWIDTH 342 0
DWIDTH 5 0
BBX 3 13 1 -3
BITMAP
20
60
40
C0
C0
C0
C0
C0
C0
C0
40
60
20
ENDCHAR
STARTCHAR parenright
ENCODING 41
SWIDTH 342 0
DWIDTH 5 0
BBX 3 13 1 -3
BITMAP
80
C0
40
60
60
60
60
60
60
60
40
C0
80
ENDCHAR
STARTCHAR asterisk
ENCODING 42
SWIDTH 480 0
DWIDTH 7 0
BBX 5 5 1 5
BITMAP
20
A8
70
A8
20
ENDCHAR
STARTCHAR plus
ENCODING 43
SWIDTH 548 0
DWIDTH 8 0
BBX 7 7 0 0
BITMAP
10
10
10
FE
10
10
10
ENDCHAR
STARTCHAR comma
ENCODING 44
SWIDTH 205 0
DWIDTH 3 0
BBX 2 4 1 -2
BITMAP
C0
C0
40
80
ENDCHAR
STARTCHAR minus
ENCODING 45
SWIDTH 548 0
DWIDTH 8 0
BBX 6 1 1 3
BITMAP
FC
ENDCHAR
STARTCHAR period
ENCODING 46
SWIDTH 274 0
DWIDTH 4 0
BBX 2 2 1 0
BITMAP
C0
C0
ENDCHAR
STARTCHAR slash
ENCODING 47
SWIDTH 274 0
DWIDTH 4 0
BBX 5 11 0 0
BITMAP
08
18
10
30
20
60
40
40
C0
80
80
ENDCHAR
STARTCHAR zero
ENCODING 48
SWIDTH 480 0
DWIDTH 7 0
BBX 6 10 0 0
BITMAP
78
48
CC
CC
CC
CC
CC
CC
48
78
ENDCHAR
STARTCHAR one
ENCODING 49
SWIDTH 480 0
DWIDTH 7 0
BBX 6 10 0 0
BITMAP
30
F0
30
30
30
30
30
30
30
FC
ENDCHAR
STARTCHAR two
ENCODING 50
SWIDTH 480 0
DWIDTH 7 0
BBX 6 10 0 0
BITMAP
38
7C
8C
0C
0C
18
30
40
FC
FC
ENDCHAR
STARTCHAR three
ENCODING 51
SWIDTH 480 0
DWIDTH 7 0
BBX 6 10 0 0
BITMAP
38
7C
8C
0C
38
1C
0C
C4
EC
78
ENDCHAR
STARTCHAR four
ENCODING 52
SWIDTH 480 0
DWIDTH 7 0
BBX 6 10 0 0
BITMAP
18
38
38
58
58
98
FC
FC
18
18
ENDCHAR
STARTCHAR five
ENCODING 53
SWIDTH 480 0
DWIDTH 7 0
BBX 6 10 0 0
BITMAP
7C
7C
40
78
7C
0C
04
C4
CC
78
ENDCHAR
STARTCHAR six
ENCODING 54
SWIDTH 480 0
DWIDTH 7 0
BBX 6 10 0 0
BITMAP
0C
38
60
C0
F8
CC
CC
CC
CC
78
ENDCHAR
STARTCHAR seven
ENCODING 55
SWIDTH 480 0
DWIDTH 7 0
BBX 6 10 0 0
BITMAP
FC
FC
8C
08
18
10
10
30
20
60
ENDCHAR
STARTCHAR eight
ENCODING 56
SWIDTH 480 0
DWIDTH 7 0
BBX 6 10 0 0
BITMAP
78
CC
CC
EC
78
78
CC
CC
CC
78
ENDCHAR
STARTCHAR nine
ENCODING 57
SWIDTH 480 0
DWIDTH 7 0
BBX 6 10 0 0
BITMAP
78
CC
CC
CC
CC
7C
18
30
70
C0
ENDCHAR
STARTCHAR colon
ENCODING 58
SWIDTH 342 0
DWIDTH 5 0
BBX 2 7 2 0
BITMAP
C0
C0
00
00
00
C0
C0
ENDCHAR
STARTCHAR semicolon
ENCODING 59
SWIDTH 342 0
DWIDTH 5 0
BBX 2 9 2 -2
BITMAP
C0
C0
00
00
00
C0
C0
40
80
ENDCHAR
STARTCHAR less
ENCODING 60
SWIDTH 548 0
DWIDTH 8 0
BBX 7 7 0 0
BITMAP
06
1C
70
C0
70
1C
06
ENDCHAR
STARTCHAR equal
ENCODING 61
SWIDTH 548 0
DWIDTH 8 0
BBX 6 3 1 2
BITMAP
FC
00
FC
ENDCHAR
STARTCHAR greater
ENCODING 62
SWIDTH 548 0
DWIDTH 8 0
BBX 7 7 0 0
BITMAP
C0
70
1C
06
1C
70
C0
ENDCHAR
STARTCHAR question
ENCODING 63
SWIDTH 480 0
DWIDTH 7 0
BBX 5 10 1 0
BITMAP
70
D8
D8
18
30
60
60
00
60
60
ENDCHAR
STARTCHAR at
ENCODING 64
SWIDTH 960 0
DWIDTH 14 0
BBX 11 12 1 -2
BITMAP
0F80
30C0
6060
4520
CF20
9B20
9B20
DF60
CDC0
6000
3800
0F80
ENDCHAR
STARTCHAR A
ENCODING 65
SWIDTH 685 0
DWIDTH 10 0
BBX 10 10 0 0
BITMAP
0C00
0C00
1E00
1600
3300
2300
3F00
6180
4180
E3C0
ENDCHAR
STARTCHAR B
ENCODING 66
SWIDTH 685 0
DWIDTH 10 0
BBX 8 10 1 0
BITMAP
FE
63
63
63
7E
63
63
63
63
FE
ENDCHAR
STARTCHAR C
ENCODING 67
SWIDTH 685 0
DWIDTH 10 0
BBX 8 10 1 0
BITMAP
3D
63
C1
C1
C0
C0
C0
C1
63
3E
ENDCHAR
STARTCHAR D
ENCODING 68
SWIDTH 754 0
DWIDTH 11 0
BBX 9 10 1 0
BITMAP
FE00
6300
6180
6180
6180
6180
6180
6180
6300
FE00
ENDCHAR
STARTCHAR E
ENCODING 69
SWIDTH 685 0
DWIDTH 10 0
BBX 8 10 1 0
BITMAP
FF
61
61
64
7C
64
61
61
63
FF
ENDCHAR
STARTCHAR F
ENCODING 70
SWIDTH 685 0
DWIDTH 10 0
BBX 8 10 1 0
BITMAP
FF
63
61
64
7C
64
60
60
60
F0
ENDCHAR
STARTCHAR G
ENCODING 71
SWIDTH 685 0
DWIDTH 10 0
BBX 9 10 1 0
BITMAP
3D00
6300
C100
C100
C000
C780
C300
C300
6300
3E00
ENDCHAR
STARTCHAR H
ENCODING 72
SWIDTH 822 0
DWIDTH 12 0
BBX 10 10 1 0
BITMAP
F3C0
6180
6180
6180
7F80
6180
6180
6180
6180
F3C0
ENDCHAR
STARTCHAR I
ENCODING 73
SWIDTH 411 0
DWIDTH 6 0
BBX 4 10 1 0
BITMAP
F0
60
60
60
60
60
60
60
60
F0
ENDCHAR
STARTCHAR J
ENCODING 74
SWIDTH 480 0
DWIDTH 7 0
BBX 6 11 0 -1
BITMAP
3C
18
18
18
18
18
18
18
D8
D8
70
ENDCHAR
STARTCHAR K
ENCODING 75
SWIDTH 754 0
DWIDTH 11 0
BBX 10 10 1 0
BITMAP
F7C0
6300
6200
6400
7800
7C00
6E00
6700
6380
F7C0
ENDCHAR
STARTCHAR L
ENCODING 76
SWIDTH 617 0
DWIDTH 9 0
BBX 8 10 0 0
BITMAP
F0
60
60
60
60
60
61
61
63
FF
ENDCHAR
STARTCHAR M
ENCODING 77
SWIDTH 891 0
DWIDTH 13 0
BBX 12 10 0 0
BITMAP
F0F0
70E0
70E0
5960
5960
5A60
4E60
4E60
4460
E4F0
ENDCHAR
STARTCHAR N
ENCODING 78
SWIDTH 685 0
DWIDTH 10 0
BBX 10 10 0 0
BITMAP
E1C0
7080
7080
5880
4C80
4E80
4780
4380
4180
E080
ENDCHAR
STARTCHAR O
ENCODING 79
SWIDTH 754 0
DWIDTH 11 0
BBX 9 10 1 0
BITMAP
3E00
6300
C180
C180
C180
C180
C180
C180
6300
3E00
ENDCHAR
STARTCHAR P
ENCODING 80
SWIDTH 617 0
DWIDTH 9 0
BBX 8 10 0 0
BITMAP
FE
67
63
63
63
7E
60
60
60
F0
ENDCHAR
STARTCHAR Q
ENCODING 81
SWIDTH 754 0
DWIDTH 11 0
BBX 9 13 1 -3
BITMAP
3E00
6300
C180
C180
C180
C180
C180
C180
6300
3E00
1C00
0E00
0380
ENDCHAR
STARTCHAR R
ENCODING 82
SWIDTH 754 0
DWIDTH 11 0
BBX 10 10 1 0
BITMAP
FE00
6700
6300
6300
6600
7C00
6E00
6700
6380
F1C0
ENDCHAR
STARTCHAR S
ENCODING 83
SWIDTH 617 0
DWIDTH 9 0
BBX 7 10 1 0
BITMAP
7A
C6
C2
E0
78
1C
0E
86
C6
FC
ENDCHAR
STARTCHAR T
ENCODING 84
SWIDTH 685 0
DWIDTH 10 0
BBX 8 10 1 0
BITMAP
FF
DB
99
18
18
18
18
18
18
3C
ENDCHAR
STARTCHAR U
ENCODING 85
SWIDTH 617 0
DWIDTH 9 0
BBX 9 10 0 0
BITMAP
F380
6100
6100
6100
6100
6100
6100
6100
7300
3E00
ENDCHAR
STARTCHAR V
ENCODING 86
SWIDTH 685 0
DWIDTH 10 0
BBX 10 10 0 0
BITMAP
F1C0
6080
6180
3100
3300
3200
1A00
1E00
0C00
0C00
ENDCHAR
STARTCHAR W
ENCODING 87
SWIDTH 1028 0
DWIDTH 15 0
BBX 15 10 0 0
BITMAP
F79E
630C
6308
3188
3190
3390
1AD0
1CE0
0C60
0C60
ENDCHAR
STARTCHAR X
ENCODING 88
SWIDTH 685 0
DWIDTH 10 0
BBX 11 10 0 0
BITMAP
F1C0
7080
3900
1E00
0C00
0E00
1700
2380
41C0
E3E0
ENDCHAR
STARTCHAR Y
ENCODING 89
SWIDTH 685 0
DWIDTH 10 0
BBX 10 10 0 0
BITMAP
F9C0
7080
3100
3900
1A00
1E00
0C00
0C00
0C00
1E00
ENDCHAR
STARTCHAR Z
ENCODING 90
SWIDTH 617 0
DWIDTH 9 0
BBX 8 10 0 0
BITMAP
FF
C7
86
8C
18
18
31
61
E3
FF
ENDCHAR
STARTCHAR bracketleft
ENCODING 91
SWIDTH 342 0
DWIDTH 5 0
BBX 4 13 1 -3
BITMAP
F0
C0
C0
C0
C0
C0
C0
C0
C0
C0
C0
C0
F0
ENDCHAR
STARTCHAR backslash
ENCODING 92
SWIDTH 274 0
DWIDTH 4 0
BBX 5 11 -1 0
BITMAP
80
C0
40
60
20
30
10
10
18
08
08
ENDCHAR
STARTCHAR bracketright
ENCODING 93
SWIDTH 342 0
DWIDTH 5 0
BBX 4 13 0 -3
BITMAP
F0
30
30
30
30
30
30
30
30
30
30
30
F0
ENDCHAR
STARTCHAR asciicircum
ENCODING 94
SWIDTH 548 0
DWIDTH 8 0
BBX 5 5 1 5
BITMAP
20
70
50
D8
88
ENDCHAR
STARTCHAR underscore
ENCODING 95
SWIDTH 480 0
DWIDTH 7 0
BBX 7 1 0 -4
BITMAP
FE
ENDCHAR
STARTCHAR grave
ENCODING 96
SWIDTH 342 0
DWIDTH 5 0
BBX 3 3 1 8
BITMAP
80
C0
20
ENDCHAR
STARTCHAR a
ENCODING 97
SWIDTH 480 0
DWIDTH 7 0
BBX 7 7 0 0
BITMAP
78
CC
0C
7C
CC
CC
76
ENDCHAR
STARTCHAR b
ENCODING 98
SWIDTH 548 0
DWIDTH 8 0
BBX 7 10 0 0
BITMAP
E0
60
60
7C
66
66
66
66
66
5C
ENDCHAR
STARTCHAR c
ENCODING 99
SWIDTH 480 0
DWIDTH 7 0
BBX 6 7 0 0
BITMAP
38
4C
CC
C0
C0
E4
78
ENDCHAR
STARTCHAR d
ENCODING 100
SWIDTH 480 0
DWIDTH 7 0
BBX 7 10 0 0
BITMAP
1C
0C
0C
7C
CC
CC
CC
CC
CC
76
ENDCHAR
STARTCHAR e
ENCODING 101
SWIDTH 480 0
DWIDTH 7 0
BBX 6 7 0 0
BITMAP
38
4C
CC
FC
C0
E4
78
ENDCHAR
STARTCHAR f
ENCODING 102
SWIDTH 342 0
DWIDTH 5 0
BBX 5 10 0 0
BITMAP
38
68
60
F0
60
60
60
60
60
F0
ENDCHAR
STARTCHAR g
ENCODING 103
SWIDTH 480 0
DWIDTH 7 0
BBX 7 10 0 -3
BITMAP
7E
CC
CC
CC
78
40
7C
FE
82
7C
ENDCHAR
STARTCHAR h
ENCODING 104
SWIDTH 548 0
DWIDTH 8 0
BBX 8 10 0 0
BITMAP
E0
60
60
6C
76
66
66
66
66
E7
ENDCHAR
STARTCHAR i
ENCODING 105
SWIDTH 274 0
DWIDTH 4 0
BBX 4 10 0 0
BITMAP
60
60
00
E0
60
60
60
60
60
F0
ENDCHAR
STARTCHAR j
ENCODING 106
SWIDTH 274 0
DWIDTH 4 0
BBX 4 13 -1 -3
BITMAP
30
30
00
70
30
30
30
30
30
30
30
B0
E0
ENDCHAR
STARTCHAR k
ENCODING 107
SWIDTH 548 0
DWIDTH 8 0
BBX 8 10 0 0
BITMAP
E0
60
60
6E
64
68
78
6C
66
E7
ENDCHAR
STARTCHAR l
ENCODING 108
SWIDTH 342 0
DWIDTH 5 0
BBX 4 10 0 0
BITMAP
E0
60
60
60
60
60
60
60
60
F0
ENDCHAR
STARTCHAR m
ENCODING 109
SWIDTH 822 0
DWIDTH 12 0
BBX 12 7 0 0
BITMAP
ECC0
7760
6660
6660
6660
6660
F770
ENDCHAR
STARTCHAR n
ENCODING 110
SWIDTH 548 0
DWIDTH 8 0
BBX 8 7 0 0
BITMAP
EC
76
66
66
66
66
E7
ENDCHAR
STARTCHAR o
ENCODING 111
SWIDTH 480 0
DWIDTH 7 0
BBX 6 7 0 0
BITMAP
78
CC
CC
CC
CC
CC
78
ENDCHAR
STARTCHAR p
ENCODING 112
SWIDTH 548 0
DWIDTH 8 0
BBX 7 10 0 -3
BITMAP
EC
76
66
66
66
66
7C
60
60
F0
ENDCHAR
STARTCHAR q
ENCODING 113
SWIDTH 480 0
DWIDTH 7 0
BBX 7 10 0 -3
BITMAP
6C
DC
CC
CC
CC
CC
7C
0C
0C
1E
ENDCHAR
STARTCHAR r
ENCODING 114
SWIDTH 411 0
DWIDTH 6 0
BBX 6 7 0 0
BITMAP
DC
6C
60
60
60
60
F0
ENDCHAR
STARTCHAR s
ENCODING 115
SWIDTH 411 0
DWIDTH 6 0
BBX 5 7 0 0
BITMAP
78
C8
E0
70
38
98
F0
ENDCHAR
STARTCHAR t
ENCODING 116
SWIDTH 342 0
DWIDTH 5 0
BBX 5 9 0 0
BITMAP
20
60
F0
60
60
60
68
70
30
ENDCHAR
STARTCHAR u
ENCODING 117
SWIDTH 480 0
DWIDTH 7 0
BBX 8 7 -1 0
BITMAP
EE
66
66
66
66
66
3B
ENDCHAR
STARTCHAR v
ENCODING 118
SWIDTH 548 0
DWIDTH 8 0
BBX 8 7 0 0
BITMAP
F7
62
62
34
34
18
18
ENDCHAR
STARTCHAR w
ENCODING 119
SWIDTH 617 0
DWIDTH 9 0
BBX 10 7 -1 0
BITMAP
EEC0
6480
7680
3700
3B00
3B00
1200
ENDCHAR
STARTCHAR x
ENCODING 120
SWIDTH 480 0
DWIDTH 7 0
BBX 7 7 0 0
BITMAP
EE
6C
38
38
38
6C
EE
ENDCHAR
STARTCHAR y
ENCODING 121
SWIDTH 480 0
DWIDTH 7 0
BBX 8 10 -1 -3
BITMAP
F7
62
32
34
1C
1C
08
08
38
30
ENDCHAR
STARTCHAR z
ENCODING 122
SWIDTH 480 0
DWIDTH 7 0
BBX 6 7 0 0
BITMAP
FC
9C
18
30
64
E4
FC
ENDCHAR
STARTCHAR braceleft
ENCODING 123
SWIDTH 480 0
DWIDTH 7 0
BBX 5 13 1 -3
BITMAP
18
30
30
30
30
60
C0
60
30
30
30
30
18
ENDCHAR
STARTCHAR bar
ENCODING 124
SWIDTH 205 0
DWIDTH 3 0
BBX 1 13 1 -3
BITMAP
80
80
80
80
80
80
80
80
80
80
80
80
80
ENDCHAR
STARTCHAR braceright
ENCODING 125
SWIDTH 480 0
DWIDTH 7 0
BBX 5 13 1 -3
BITMAP
C0
60
60
60
60
30
18
30
60
60
60
60
C0
ENDCHAR
STARTCHAR asciitilde
ENCODING 126
SWIDTH 548 0
DWIDTH 8 0
BBX 7 4 0 2
BITMAP
60
F2
9E
0C
ENDCHAR
STARTCHAR afii10051
ENCODING 128
SWIDTH 891 0
DWIDTH 13 0
BBX 11 13 1 -3
BITMAP
FF00
9900
1800
1BC0
1CE0
1860
1860
1860
1860
3C60
0060
00C0
0380
ENDCHAR
STARTCHAR afii10052
ENCODING 129
SWIDTH 617 0
DWIDTH 9 0
BBX 8 14 0 0
BITMAP
02
06
08
00
FF
63
61
61
60
60
60
60
60
F0
ENDCHAR
STARTCHAR quotesinglbase
ENCODING 130
SWIDTH 274 0
DWIDTH 4 0
BBX 2 4 1 -2
BITMAP
C0
C0
40
80
ENDCHAR
STARTCHAR afii10100
ENCODING 131
SWIDTH 411 0
DWIDTH 6 0
BBX 6 11 0 0
BITMAP
04
0C
10
00
FC
64
60
60
60
60
F0
ENDCHAR
STARTCHAR quotedblbase
ENCODING 132
SWIDTH 480 0
DWIDTH 7 0
BBX 5 4 1 -2
BITMAP
D8
D8
48
90
ENDCHAR
STARTCHAR ellipsis
ENCODING 133
SWIDTH 1028 0
DWIDTH 15 0
BBX 10 2 2 0
BITMAP
CCC0
CCC0
ENDCHAR
STARTCHAR dagger
ENCODING 134
SWIDTH 480 0
DWIDTH 7 0
BBX 7 12 0 -2
BITMAP
10
10
54
FE
54
10
10
10
10
10
10
10
ENDCHAR
STARTCHAR daggerdbl
ENCODING 135
SWIDTH 480 0
DWIDTH 7 0
BBX 7 12 0 -2
BITMAP
10
10
54
FE
54
10
10
54
FE
54
10
10
ENDCHAR
STARTCHAR Euro
ENCODING 136
SWIDTH 685 0
DWIDTH 10 0
BBX 9 10 0 0
BITMAP
1E80
3180
6080
FE00
6000
FC00
6000
6080
3180
1F00
ENDCHAR
STARTCHAR perthousand
ENCODING 137
SWIDTH 1028 0
DWIDTH 15 0
BBX 14 10 0 0
BITMAP
7300
DF00
D600
E400
0C00
1800
139C
36B4
66B4
6738
ENDCHAR
STARTCHAR afii10058
ENCODING 138
SWIDTH 960 0
DWIDTH 14 0
BBX 13 10 0 0
BITMAP
7F80
2300
2300
2300
23F0
2318
2318
2318
A338
C7F0
ENDCHAR
STARTCHAR guilsinglleft
ENCODING 139
SWIDTH 411 0
DWIDTH 6 0
BBX 4 5 1 1
BITMAP
30
60
C0
60
30
ENDCHAR
STARTCHAR afii10059
ENCODING 140
SWIDTH 1028 0
DWIDTH 15 0
BBX 13 10 1 0
BITMAP
F780
6300
6300
6300
7FF0
6318
6318
6318
6338
F7F0
ENDCHAR
STARTCHAR afii10061
ENCODING 141
SWIDTH 754 0
DWIDTH 11 0
BBX 10 14 1 0
BITMAP
0200
0600
0800
0000
F7C0
6300
6200
6400
7800
7C00
6E00
6700
6380
F7C0
ENDCHAR
STARTCHAR afii10060
ENCODING 142
SWIDTH 960 0
DWIDTH 14 0
BBX 12 10 1 0
BITMAP
FF00
9900
1800
1BC0
1CE0
1860
1860
1860
1860
3CF0
ENDCHAR
STARTCHAR afii10145
ENCODING 143
SWIDTH 822 0
DWIDTH 12 0
BBX 10 12 1 -2
BITMAP
F3C0
6180
6180
6180
6180
6180
6180
6180
6180
FFC0
0E00
0400
ENDCHAR
STARTCHAR afii10099
ENCODING 144
SWIDTH 548 0
DWIDTH 8 0
BBX 7 13 0 -3
BITMAP
E0
60
F8
6C
76
66
66
66
66
E6
06
06
1C
ENDCHAR
STARTCHAR quoteleft
ENCODING 145
SWIDTH 274 0
DWIDTH 4 0
BBX 2 4 1 6
BITMAP
40
80
C0
C0
ENDCHAR
STARTCHAR quoteright
ENCODING 146
SWIDTH 274 0
DWIDTH 4 0
BBX 2 4 1 6
BITMAP
C0
C0
40
80
ENDCHAR
STARTCHAR quotedblleft
ENCODING 147
SWIDTH 480 0
DWIDTH 7 0
BBX 5 4 1 6
BITMAP
48
90
D8
D8
ENDCHAR
STARTCHAR quotedblright
ENCODING 148
SWIDTH 480 0
DWIDTH 7 0
BBX 5 4 1 6
BITMAP
D8
D8
48
90
ENDCHAR
STARTCHAR bullet
ENCODING 149
SWIDTH 342 0
DWIDTH 5 0
BBX 4 4 0 2
BITMAP
60
F0
F0
60
ENDCHAR
STARTCHAR endash
ENCODING 150
SWIDTH 480 0
DWIDTH 7 0
BBX 7 1 0 3
BITMAP
FE
ENDCHAR
STARTCHAR emdash
ENCODING 151
SWIDTH 1028 0
DWIDTH 15 0
BBX 13 1 0 3
BITMAP
FFF8
ENDCHAR
STARTCHAR trademark
ENCODING 153
SWIDTH 1028 0
DWIDTH 15 0
BBX 13 6 1 4
BITMAP
FB18
A9B0
21B0
2150
2150
7358
ENDCHAR
STARTCHAR afii10106
ENCODING 154
SWIDTH 822 0
DWIDTH 12 0
BBX 11 7 0 0
BITMAP
7F00
2600
2600
27C0
2660
E660
CFC0
ENDCHAR
STARTCHAR guilsinglright
ENCODING 155
SWIDTH 411 0
DWIDTH 6 0
BBX 4 5 1 1
BITMAP
C0
60
30
60
C0
ENDCHAR
STARTCHAR afii10107
ENCODING 156
SWIDTH 822 0
DWIDTH 12 0
BBX 11 7 0 0
BITMAP
E700
6600
6600
7FC0
6660
6660
E7C0
ENDCHAR
STARTCHAR afii10109
ENCODING 157
SWIDTH 548 0
DWIDTH 8 0
BBX 8 11 0 0
BITMAP
04
0C
10
00
F7
64
68
78
6C
66
F7
ENDCHAR
STARTCHAR afii10108
ENCODING 158
SWIDTH 548 0
DWIDTH 8 0
BBX 8 10 0 0
BITMAP
E0
60
F8
6C
76
66
66
66
66
E7
ENDCHAR
STARTCHAR afii10193
ENCODING 159
SWIDTH 548 0
DWIDTH 8 0
BBX 8 8 0 -1
BITMAP
E7
66
66
66
66
66
FF
08
ENDCHAR
STARTCHAR space
ENCODING 160
SWIDTH 274 0
DWIDTH 4 0
BBX 0 0 0 0
BITMAP
ENDCHAR
STARTCHAR afii10062
ENCODING 161
SWIDTH 685 0
DWIDTH 10 0
BBX 10 13 0 0
BITMAP
1B00
0E00
0000
F1C0
6080
3180
1900
1B00
0E00
0600
0400
6C00
3800
ENDCHAR
STARTCHAR afii10110
ENCODING 162
SWIDTH 480 0
DWIDTH 7 0
BBX 8 13 -1 -3
BITMAP
14
1C
00
F7
62
32
34
1C
1C
08
08
38
30
ENDCHAR
STARTCHAR afii10057
ENCODING 163
SWIDTH 480 0
DWIDTH 7 0
BBX 6 11 0 -1
BITMAP
3C
18
18
18
18
18
18
18
D8
D8
70
ENDCHAR
STARTCHAR currency
ENCODING 164
SWIDTH 548 0
DWIDTH 8 0
BBX 7 6 0 2
BITMAP
BA
6C
44
44
6C
BA
ENDCHAR
STARTCHAR afii10050
ENCODING 165
SWIDTH 617 0
DWIDTH 9 0
BBX 8 13 0 0
BITMAP
01
01
03
FF
60
60
60
60
60
60
60
60
F0
ENDCHAR
STARTCHAR brokenbar
ENCODING 166
SWIDTH 205 0
DWIDTH 3 0
BBX 1 13 1 -3
BITMAP
80
80
80
80
80
00
00
00
80
80
80
80
80
ENDCHAR
STARTCHAR section
ENCODING 167
SWIDTH 480 0
DWIDTH 7 0
BBX 5 12 1 -2
BITMAP
70
D8
C8
60
F0
98
C8
78
30
98
D8
70
ENDCHAR
STARTCHAR afii10023
ENCODING 168
SWIDTH 667 0
DWIDTH 10 0
BBX 8 13 1 0
BITMAP
24
24
00
FF
61
61
64
7C
64
61
61
63
FF
ENDCHAR
STARTCHAR copyright
ENCODING 169
SWIDTH 822 0
DWIDTH 12 0
BBX 10 10 1 0
BITMAP
1E00
6180
4E80
9240
9040
9040
9240
4C80
6180
1E00
ENDCHAR
STARTCHAR afii10053
ENCODING 170
SWIDTH 685 0
DWIDTH 10 0
BBX 8 10 1 0
BITMAP
3D
63
C1
C1
F8
C0
C0
C1
63
3E
ENDCHAR
STARTCHAR guillemotleft
ENCODING 171
SWIDTH 617 0
DWIDTH 9 0
BBX 7 5 1 1
BITMAP
36
6C
D8
6C
36
ENDCHAR
STARTCHAR logicalnot
ENCODING 172
SWIDTH 548 0
DWIDTH 8 0
BBX 6 4 1 1
BITMAP
FC
04
04
04
ENDCHAR
STARTCHAR hyphen
ENCODING 173
SWIDTH 342 0
DWIDTH 5 0
BBX 4 2 0 2
BITMAP
F0
F0
ENDCHAR
STARTCHAR registered
ENCODING 174
SWIDTH 822 0
DWIDTH 12 0
BBX 10 10 1 0
BITMAP
1E00
6180
5C80
9240
9240
9C40
9440
5280
6180
1E00
ENDCHAR
STARTCHAR afii10056
ENCODING 175
SWIDTH 389 0
DWIDTH 6 0
BBX 4 13 1 0
BITMAP
90
90
00
F0
60
60
60
60
60
60
60
60
F0
ENDCHAR
STARTCHAR degree
ENCODING 176
SWIDTH 411 0
DWIDTH 6 0
BBX 4 4 1 6
BITMAP
60
90
90
60
ENDCHAR
STARTCHAR plusminus
ENCODING 177
SWIDTH 548 0
DWIDTH 8 0
BBX 7 9 0 0
BITMAP
10
10
10
FE
10
10
10
00
FE
ENDCHAR
STARTCHAR afii10055
ENCODING 178
SWIDTH 411 0
DWIDTH 6 0
BBX 4 10 1 0
BITMAP
F0
60
60
60
60
60
60
60
60
F0
ENDCHAR
STARTCHAR afii10103
ENCODING 179
SWIDTH 274 0
DWIDTH 4 0
BBX 4 10 0 0
BITMAP
60
60
00
E0
60
60
60
60
60
F0
ENDCHAR
STARTCHAR afii10098
ENCODING 180
SWIDTH 411 0
DWIDTH 6 0
BBX 6 8 0 0
BITMAP
04
FC
60
60
60
60
60
F0
ENDCHAR
STARTCHAR mu
ENCODING 181
SWIDTH 480 0
DWIDTH 7 0
BBX 8 10 -1 -3
BITMAP
EE
66
66
66
66
66
7B
40
60
60
ENDCHAR
STARTCHAR paragraph
ENCODING 182
SWIDTH 548 0
DWIDTH 8 0
BBX 7 13 0 -3
BITMAP
7E
F4
F4
F4
F4
74
14
14
14
14
14
14
14
ENDCHAR
STARTCHAR periodcentered
ENCODING 183
SWIDTH 274 0
DWIDTH 4 0
BBX 2 2 1 3
BITMAP
C0
C0
ENDCHAR
STARTCHAR afii10071
ENCODING 184
SWIDTH 444 0
DWIDTH 7 0
BBX 6 10 0 0
BITMAP
28
28
00
38
4C
CC
FC
C0
E4
78
ENDCHAR
STARTCHAR afii61352
ENCODING 185
SWIDTH 1028 0
DWIDTH 15 0
BBX 15 10 -1 0
BITMAP
7030
3840
3840
2C40
264C
2752
23D2
21CC
20C0
C05E
ENDCHAR
STARTCHAR afii10101
ENCODING 186
SWIDTH 480 0
DWIDTH 7 0
BBX 6 7 0 0
BITMAP
38
4C
C4
F0
C0
E4
78
ENDCHAR
STARTCHAR guillemotright
ENCODING 187
SWIDTH 617 0
DWIDTH 9 0
BBX 7 5 1 1
BITMAP
D8
6C
36
6C
D8
ENDCHAR
STARTCHAR afii10105
ENCODING 188
SWIDTH 274 0
DWIDTH 4 0
BBX 4 13 -1 -3
BITMAP
30
30
00
70
30
30
30
30
30
30
30
B0
E0
ENDCHAR
STARTCHAR afii10054
ENCODING 189
SWIDTH 617 0
DWIDTH 9 0
BBX 7 10 1 0
BITMAP
7A
C6
C2
E0
78
1C
0E
86
C6
FC
ENDCHAR
STARTCHAR afii10102
ENCODING 190
SWIDTH 411 0
DWIDTH 6 0
BBX 5 7 0 0
BITMAP
78
C8
E0
70
38
98
F0
ENDCHAR
STARTCHAR afii10104
ENCODING 191
SWIDTH 278 0
DWIDTH 4 0
BBX 4 10 0 0
BITMAP
A0
A0
00
E0
60
60
60
60
60
F0
ENDCHAR
STARTCHAR afii10017
ENCODING 192
SWIDTH 685 0
DWIDTH 10 0
BBX 10 10 0 0
BITMAP
0C00
0C00
1E00
1600
3300
2300
3F00
6180
4180
E3C0
ENDCHAR
STARTCHAR afii10018
ENCODING 193
SWIDTH 617 0
DWIDTH 9 0
BBX 8 10 0 0
BITMAP
FF
63
61
60
7E
63
63
63
67
FE
ENDCHAR
STARTCHAR afii10019
ENCODING 194
SWIDTH 685 0
DWIDTH 10 0
BBX 8 10 1 0
BITMAP
FE
63
63
63
7E
63
63
63
63
FE
ENDCHAR
STARTCHAR afii10020
ENCODING 195
SWIDTH 617 0
DWIDTH 9 0
BBX 8 10 0 0
BITMAP
FF
63
61
61
60
60
60
60
60
F0
ENDCHAR
STARTCHAR afii10021
ENCODING 196
SWIDTH 754 0
DWIDTH 11 0
BBX 9 12 1 -2
BITMAP
7F80
2300
2300
2300
2300
2300
2300
2300
4300
FF80
C180
8080
ENDCHAR
STARTCHAR afii10022
ENCODING 197
SWIDTH 685 0
DWIDTH 10 0
BBX 8 10 1 0
BITMAP
FF
61
61
64
7C
64
61
61
63
FF
ENDCHAR
STARTCHAR afii10024
ENCODING 198
SWIDTH 1028 0
DWIDTH 15 0
BBX 14 10 0 0
BITMAP
F7BC
3330
1320
0B40
0780
0FC0
1B60
3330
6318
F7BC
ENDCHAR
STARTCHAR afii10025
ENCODING 199
SWIDTH 617 0
DWIDTH 9 0
BBX 7 10 1 0
BITMAP
B8
CC
86
06
38
0C
06
86
CC
78
ENDCHAR
STARTCHAR afii10026
ENCODING 200
SWIDTH 822 0
DWIDTH 12 0
BBX 10 10 1 0
BITMAP
F3C0
6180
6380
6580
6580
6980
6980
7180
6180
F3C0
ENDCHAR
STARTCHAR afii10027
ENCODING 201
SWIDTH 822 0
DWIDTH 12 0
BBX 10 13 1 0
BITMAP
3300
1E00
0000
F3C0
6180
6380
6580
6580
6980
6980
7180
6180
F3C0
ENDCHAR
STARTCHAR afii10028
ENCODING 202
SWIDTH 754 0
DWIDTH 11 0
BBX 10 10 1 0
BITMAP
F7C0
6300
6200
6400
7800
7C00
6E00
6700
6380
F7C0
ENDCHAR
STARTCHAR afii10029
ENCODING 203
SWIDTH 685 0
DWIDTH 10 0
BBX 9 10 0 0
BITMAP
7F80
2300
2300
2300
2300
2300
2300
2300
A300
C780
ENDCHAR
STARTCHAR afii10030
ENCODING 204
SWIDTH 891 0
DWIDTH 13 0
BBX 12 10 0 0
BITMAP
F0F0
70E0
70E0
5960
5960
5A60
4E60
4E60
4460
E4F0
ENDCHAR
STARTCHAR afii10031
ENCODING 205
SWIDTH 822 0
DWIDTH 12 0
BBX 10 10 1 0
BITMAP
F3C0
6180
6180
6180
7F80
6180
6180
6180
6180
F3C0
ENDCHAR
STARTCHAR afii10032
ENCODING 206
SWIDTH 754 0
DWIDTH 11 0
BBX 9 10 1 0
BITMAP
3E00
6300
C180
C180
C180
C180
C180
C180
6300
3E00
ENDCHAR
STARTCHAR afii10033
ENCODING 207
SWIDTH 822 0
DWIDTH 12 0
BBX 10 10 1 0
BITMAP
FFC0
6180
6180
6180
6180
6180
6180
6180
6180
F3C0
ENDCHAR
STARTCHAR afii10034
ENCODING 208
SWIDTH 617 0
DWIDTH 9 0
BBX 8 10 0 0
BITMAP
FE
67
63
63
63
7E
60
60
60
F0
ENDCHAR
STARTCHAR afii10035
ENCODING 209
SWIDTH 685 0
DWIDTH 10 0
BBX 8 10 1 0
BITMAP
3D
63
C1
C1
C0
C0
C0
C1
63
3E
ENDCHAR
STARTCHAR afii10036
ENCODING 210
SWIDTH 685 0
DWIDTH 10 0
BBX 8 10 1 0
BITMAP
FF
DB
99
18
18
18
18
18
18
3C
ENDCHAR
STARTCHAR afii10037
ENCODING 211
SWIDTH 685 0
DWIDTH 10 0
BBX 10 10 0 0
BITMAP
F1C0
6080
3180
1900
1B00
0E00
0600
0400
6C00
3800
ENDCHAR
STARTCHAR afii10038
ENCODING 212
SWIDTH 754 0
DWIDTH 11 0
BBX 10 10 0 0
BITMAP
1E00
0C00
7F80
CCC0
CCC0
CCC0
CCC0
7F80
0C00
1E00
ENDCHAR
STARTCHAR afii10039
ENCODING 213
SWIDTH 685 0
DWIDTH 10 0
BBX 11 10 0 0
BITMAP
F1C0
7080
3900
1E00
0C00
0E00
1700
2380
41C0
E3E0
ENDCHAR
STARTCHAR afii10040
ENCODING 214
SWIDTH 822 0
DWIDTH 12 0
BBX 10 12 1 -2
BITMAP
F3C0
6180
6180
6180
6180
6180
6180
6180
6180
FFC0
00C0
0040
ENDCHAR
STARTCHAR afii10041
ENCODING 215
SWIDTH 822 0
DWIDTH 12 0
BBX 10 10 1 0
BITMAP
F3C0
6180
6180
6180
6180
7380
3D80
0180
0180
03C0
ENDCHAR
STARTCHAR afii10042
ENCODING 216
SWIDTH 1028 0
DWIDTH 15 0
BBX 14 10 0 0
BITMAP
F7BC
6318
6318
6318
6318
6318
6318
6318
6318
FFFC
ENDCHAR
STARTCHAR afii10043
ENCODING 217
SWIDTH 1028 0
DWIDTH 15 0
BBX 14 12 0 -2
BITMAP
F7BC
6318
6318
6318
6318
6318
6318
6318
6318
FFFC
000C
0004
ENDCHAR
STARTCHAR afii10044
ENCODING 218
SWIDTH 754 0
DWIDTH 11 0
BBX 10 10 0 0
BITMAP
FC00
D800
9800
1800
1F80
18C0
18C0
18C0
19C0
3F80
ENDCHAR
STARTCHAR afii10045
ENCODING 219
SWIDTH 891 0
DWIDTH 13 0
BBX 12 10 0 0
BITMAP
F0F0
6060
6060
6060
7E60
6360
6360
6360
6760
FEF0
ENDCHAR
STARTCHAR afii10046
ENCODING 220
SWIDTH 617 0
DWIDTH 9 0
BBX 8 10 0 0
BITMAP
F0
60
60
60
7E
63
63
63
67
FE
ENDCHAR
STARTCHAR afii10047
ENCODING 221
SWIDTH 685 0
DWIDTH 10 0
BBX 8 10 1 0
BITMAP
BC
C6
83
83
1F
03
03
83
C6
7C
ENDCHAR
STARTCHAR afii10048
ENCODING 222
SWIDTH 960 0
DWIDTH 14 0
BBX 13 10 0 0
BITMAP
F3E0
6630
6C18
6C18
7C18
6C18
6C18
6C18
6630
F3E0
ENDCHAR
STARTCHAR afii10049
ENCODING 223
SWIDTH 754 0
DWIDTH 11 0
BBX 10 10 0 0
BITMAP
1FC0
3980
3180
3180
1980
0F80
1D80
3980
7180
E3C0
ENDCHAR
STARTCHAR afii10065
ENCODING 224
SWIDTH 480 0
DWIDTH 7 0
BBX 7 7 0 0
BITMAP
78
CC
0C
7C
CC
CC
76
ENDCHAR
STARTCHAR afii10066
ENCODING 225
SWIDTH 480 0
DWIDTH 7 0
BBX 6 10 0 0
BITMAP
04
78
C0
D8
EC
CC
CC
CC
CC
78
ENDCHAR
STARTCHAR afii10067
ENCODING 226
SWIDTH 548 0
DWIDTH 8 0
BBX 7 7 0 0
BITMAP
FC
66
66
7C
66
66
FC
ENDCHAR
STARTCHAR afii10068
ENCODING 227
SWIDTH 411 0
DWIDTH 6 0
BBX 6 7 0 0
BITMAP
FC
64
60
60
60
60
F0
ENDCHAR
STARTCHAR afii10069
ENCODING 228
SWIDTH 548 0
DWIDTH 8 0
BBX 8 8 0 -1
BITMAP
7F
26
26
26
26
46
FF
83
ENDCHAR
STARTCHAR afii10070
ENCODING 229
SWIDTH 480 0
DWIDTH 7 0
BBX 6 7 0 0
BITMAP
38
4C
CC
FC
C0
E4
78
ENDCHAR
STARTCHAR afii10072
ENCODING 230
SWIDTH 822 0
DWIDTH 12 0
BBX 12 7 0 0
BITMAP
EF70
2640
1680
1F80
36C0
6660
EF70
ENDCHAR
STARTCHAR afii10073
ENCODING 231
SWIDTH 480 0
DWIDTH 7 0
BBX 6 7 0 0
BITMAP
F8
8C
0C
38
0C
8C
78
ENDCHAR
STARTCHAR afii10074
ENCODING 232
SWIDTH 548 0
DWIDTH 8 0
BBX 8 7 0 0
BITMAP
E7
66
6E
6E
76
66
E7
ENDCHAR
STARTCHAR afii10075
ENCODING 233
SWIDTH 548 0
DWIDTH 8 0
BBX 8 10 0 0
BITMAP
24
3C
00
E7
66
6E
6E
76
66
E7
ENDCHAR
STARTCHAR afii10076
ENCODING 234
SWIDTH 548 0
DWIDTH 8 0
BBX 8 7 0 0
BITMAP
F7
64
68
78
6C
66
F7
ENDCHAR
STARTCHAR afii10077
ENCODING 235
SWIDTH 548 0
DWIDTH 8 0
BBX 8 7 0 0
BITMAP
7F
26
26
26
26
E6
CF
ENDCHAR
STARTCHAR afii10078
ENCODING 236
SWIDTH 685 0
DWIDTH 10 0
BBX 10 7 0 0
BITMAP
E1C0
7380
7380
5D80
5D80
4980
C9C0
ENDCHAR
STARTCHAR afii10079
ENCODING 237
SWIDTH 548 0
DWIDTH 8 0
BBX 8 7 0 0
BITMAP
E7
66
66
7E
66
66
E7
ENDCHAR
STARTCHAR afii10080
ENCODING 238
SWIDTH 480 0
DWIDTH 7 0
BBX 6 7 0 0
BITMAP
78
CC
CC
CC
CC
CC
78
ENDCHAR
STARTCHAR afii10081
ENCODING 239
SWIDTH 548 0
DWIDTH 8 0
BBX 8 7 0 0
BITMAP
FF
66
66
66
66
66
E7
ENDCHAR
STARTCHAR afii10082
ENCODING 240
SWIDTH 548 0
DWIDTH 8 0
BBX 7 10 0 -3
BITMAP
EC
76
66
66
66
66
7C
60
60
F0
ENDCHAR
STARTCHAR afii10083
ENCODING 241
SWIDTH 480 0
DWIDTH 7 0
BBX 6 7 0 0
BITMAP
38
4C
CC
C0
C0
E4
78
ENDCHAR
STARTCHAR afii10084
ENCODING 242
SWIDTH 411 0
DWIDTH 6 0
BBX 6 7 0 0
BITMAP
FC
B4
30
30
30
30
78
ENDCHAR
STARTCHAR afii10085
ENCODING 243
SWIDTH 480 0
DWIDTH 7 0
BBX 8 10 -1 -3
BITMAP
F7
62
32
34
1C
1C
08
08
38
30
ENDCHAR
STARTCHAR afii10086
ENCODING 244
SWIDTH 754 0
DWIDTH 11 0
BBX 10 13 0 -3
BITMAP
1C00
0C00
0C00
7F80
CCC0
CCC0
CCC0
CCC0
CCC0
7F80
0C00
0C00
1E00
ENDCHAR
STARTCHAR afii10087
ENCODING 245
SWIDTH 480 0
DWIDTH 7 0
BBX 7 7 0 0
BITMAP
EE
6C
38
38
38
6C
EE
ENDCHAR
STARTCHAR afii10088
ENCODING 246
SWIDTH 548 0
DWIDTH 8 0
BBX 8 8 0 -1
BITMAP
E7
66
66
66
66
66
FF
01
ENDCHAR
STARTCHAR afii10089
ENCODING 247
SWIDTH 480 0
DWIDTH 7 0
BBX 8 7 -1 0
BITMAP
E7
66
66
3E
06
06
0F
ENDCHAR
STARTCHAR afii10090
ENCODING 248
SWIDTH 822 0
DWIDTH 12 0
BBX 12 7 0 0
BITMAP
EEF0
6660
6660
6660
6660
6660
FFF0
ENDCHAR
STARTCHAR afii10091
ENCODING 249
SWIDTH 822 0
DWIDTH 12 0
BBX 12 8 0 -1
BITMAP
EEF0
6660
6660
6660
6660
6660
FFF0
0010
ENDCHAR
STARTCHAR afii10092
ENCODING 250
SWIDTH 617 0
DWIDTH 9 0
BBX 8 7 0 0
BITMAP
F8
B0
30
3E
33
33
7E
ENDCHAR
STARTCHAR afii10093
ENCODING 251
SWIDTH 754 0
DWIDTH 11 0
BBX 11 7 0 0
BITMAP
F1E0
60C0
60C0
7CC0
66C0
66C0
FDE0
ENDCHAR
STARTCHAR afii10094
ENCODING 252
SWIDTH 548 0
DWIDTH 8 0
BBX 7 7 0 0
BITMAP
F0
60
60
7C
66
66
FC
ENDCHAR
STARTCHAR afii10095
ENCODING 253
SWIDTH 480 0
DWIDTH 7 0
BBX 6 7 0 0
BITMAP
F8
8C
0C
3C
0C
8C
78
ENDCHAR
STARTCHAR afii10096
ENCODING 254
SWIDTH 754 0
DWIDTH 11 0
BBX 10 7 0 0
BITMAP
F780
6CC0
6CC0
7CC0
6CC0
6CC0
F780
ENDCHAR
STARTCHAR afii10097
ENCODING 255
SWIDTH 480 0
DWIDTH 7 0
BBX 8 7 -1 0
BITMAP
3F
66
66
3E
36
66
CF
ENDCHAR
STARTCHAR Lslash
ENCODING -1
SWIDTH 617 0
DWIDTH 9 0
BBX 8 10 0 0
BITMAP
F0
60
60
68
70
E0
61
61
63
FF
ENDCHAR
STARTCHAR OE
ENCODING -1
SWIDTH 960 0
DWIDTH 14 0
BBX 13 10 0 0
BITMAP
3DF8
6718
C308
C320
C3E0
C320
C308
C308
6718
3DF8
ENDCHAR
STARTCHAR Scaron
ENCODING -1
SWIDTH 617 0
DWIDTH 9 0
BBX 7 14 1 0
BITMAP
44
38
10
00
7A
C6
C2
E0
78
1C
0E
86
C6
FC
ENDCHAR
STARTCHAR Ydieresis
ENCODING -1
SWIDTH 685 0
DWIDTH 10 0
BBX 10 13 0 0
BITMAP
1200
1200
0000
F9C0
7080
3100
3900
1A00
1E00
0C00
0C00
0C00
1E00
ENDCHAR
STARTCHAR Zcaron
ENCODING -1
SWIDTH 617 0
DWIDTH 9 0
BBX 8 14 0 0
BITMAP
22
1C
08
00
FF
C7
86
8C
18
18
31
61
E3
FF
ENDCHAR
STARTCHAR breve
ENCODING -1
SWIDTH 342 0
DWIDTH 5 0
BBX 5 3 0 8
BITMAP
88
88
70
ENDCHAR
STARTCHAR caron
ENCODING -1
SWIDTH 342 0
DWIDTH 5 0
BBX 5 3 0 8
BITMAP
88
70
20
ENDCHAR
STARTCHAR circumflex
ENCODING -1
SWIDTH 342 0
DWIDTH 5 0
BBX 5 3 0 8
BITMAP
20
70
88
ENDCHAR
STARTCHAR dotaccent
ENCODING -1
SWIDTH 342 0
DWIDTH 5 0
BBX 1 2 2 8
BITMAP
80
80
ENDCHAR
STARTCHAR dotlessi
ENCODING -1
SWIDTH 274 0
DWIDTH 4 0
BBX 4 7 0 0
BITMAP
E0
60
60
60
60
60
F0
ENDCHAR
STARTCHAR fi
ENCODING -1
SWIDTH 548 0
DWIDTH 8 0
BBX 8 10 0 0
BITMAP
3E
66
60
FE
66
66
66
66
66
FF
ENDCHAR
STARTCHAR fl
ENCODING -1
SWIDTH 548 0
DWIDTH 8 0
BBX 8 10 0 0
BITMAP
3E
66
66
FE
66
66
66
66
66
EF
ENDCHAR
STARTCHAR florin
ENCODING -1
SWIDTH 480 0
DWIDTH 7 0
BBX 7 14 0 -3
BITMAP
1C
36
30
30
FC
30
30
30
30
30
30
B0
F0
60
ENDCHAR
STARTCHAR fraction
ENCODING -1
SWIDTH 274 0
DWIDTH 4 0
BBX 5 10 -1 0
BITMAP
08
08
10
10
20
20
40
40
80
80
ENDCHAR
STARTCHAR hungarumlaut
ENCODING -1
SWIDTH 342 0
DWIDTH 5 0
BBX 6 3 -1 8
BITMAP
24
6C
90
ENDCHAR
STARTCHAR lslash
ENCODING -1
SWIDTH 274 0
DWIDTH 4 0
BBX 4 10 0 0
BITMAP
E0
60
60
70
60
E0
60
60
60
F0
ENDCHAR
STARTCHAR oe
ENCODING -1
SWIDTH 685 0
DWIDTH 10 0
BBX 9 7 0 0
BITMAP
7F00
D980
D980
DF80
D800
D980
7F00
ENDCHAR
STARTCHAR ogonek
ENCODING -1
SWIDTH 342 0
DWIDTH 5 0
BBX 4 3 1 -3
BITMAP
80
D0
60
ENDCHAR
STARTCHAR ring
ENCODING -1
SWIDTH 342 0
DWIDTH 5 0
BBX 4 3 0 8
BITMAP
60
90
60
ENDCHAR
STARTCHAR scaron
ENCODING -1
SWIDTH 411 0
DWIDTH 6 0
BBX 5 11 0 0
BITMAP
88
70
20
00
78
C8
E0
70
38
98
F0
ENDCHAR
STARTCHAR tilde
ENCODING -1
SWIDTH 342 0
DWIDTH 5 0
BBX 5 2 0 8
BITMAP
68
B0
ENDCHAR
STARTCHAR zcaron
ENCODING -1
SWIDTH 480 0
DWIDTH 7 0
BBX 6 11 0 0
BITMAP
88
70
20
00
FC
9C
18
30
64
E4
FC
ENDCHAR
ENDFONT
